<svg width="30" height="97" viewBox="0 0 30 97" fill="none" xmlns="http://www.w3.org/2000/svg">
<path d="M17 2C17 0.89543 16.1046 -4.82823e-08 15 0C13.8954 4.82823e-08 13 0.895431 13 2L17 2ZM13.5858 96.4142C14.3668 97.1953 15.6332 97.1953 16.4142 96.4142L29.1421 83.6863C29.9232 82.9052 29.9232 81.6389 29.1421 80.8579C28.3611 80.0768 27.0948 80.0768 26.3137 80.8579L15 92.1716L3.6863 80.8579C2.90525 80.0768 1.63892 80.0768 0.857868 80.8579C0.0768191 81.6389 0.0768191 82.9052 0.857868 83.6863L13.5858 96.4142ZM13 2L13 95L17 95L17 2L13 2Z" fill="#51507E"/>
</svg>
