<svg width="24" height="42" viewBox="0 0 24 42" fill="none" xmlns="http://www.w3.org/2000/svg">
<path d="M5.87301 1.02847L22.9875 18.5141C23.3083 18.8392 23.563 19.226 23.7368 19.6521C23.9105 20.0783 24 20.5354 24 20.997C24 21.4587 23.9105 21.9158 23.7368 22.3419C23.563 22.7681 23.3083 23.1549 22.9875 23.48L5.87301 40.9656C5.5548 41.2933 5.17623 41.5535 4.75912 41.7311C4.342 41.9086 3.89461 42 3.44275 42C2.99088 42 2.54349 41.9086 2.12638 41.7311C1.70927 41.5535 1.33069 41.2933 1.01249 40.9656C0.691665 40.6405 0.437022 40.2537 0.263246 39.8275C0.0894694 39.4014 0 38.9443 0 38.4826C0 38.0209 0.0894694 37.5639 0.263246 37.1377C0.437022 36.7115 0.691665 36.3248 1.01249 35.9997L15.731 20.997L1.01249 5.99438C0.367943 5.33586 0.00584316 4.44272 0.00584316 3.51143C0.00584316 3.0503 0.0947391 2.59369 0.26746 2.16766C0.440181 1.74164 0.693342 1.35454 1.01249 1.02847C1.65703 0.369953 2.53122 0 3.44275 0C3.89409 0 4.34101 0.0908268 4.758 0.267293C5.17498 0.443758 5.55386 0.702407 5.87301 1.02847Z" fill="#38376C"/>
</svg>
