<svg width="486" height="512" viewBox="0 0 486 512" fill="none" xmlns="http://www.w3.org/2000/svg">
<path d="M486 0H0V512H486V0Z" fill="white"/>
<path d="M68.2661 141.664C93.2338 90.6236 139.553 52.0097 197.296 46.5728C236.592 42.8717 276.956 55.0384 308.259 80.3907C324.017 93.153 338.022 109.484 347.318 128.087C357.995 149.455 361.1 174.089 372.086 195.352C385.744 221.793 411.387 232.695 428.608 255.542C442.789 274.358 447.656 299.569 446.028 323.532C443.057 367.279 418.727 408.813 382.945 431.231C352.695 450.182 316.229 455.413 281.072 453.692C226.871 451.038 172.904 432.21 130.214 396.928C87.5234 361.646 56.8332 309.496 49.5657 252.849C44.6264 214.35 51.8088 175.308 68.2661 141.664Z" fill="#BE5C5A"/>
<path d="M68.7084 141.724C93.6402 90.6939 139.892 52.0875 197.551 46.6516C236.791 42.9513 277.098 55.1156 308.356 80.463C324.091 93.2229 338.077 109.55 347.359 128.151C358.02 149.514 361.121 174.143 372.091 195.402C385.729 221.838 411.336 232.738 428.532 255.581C442.692 274.393 447.553 299.598 445.927 323.557C442.96 367.296 418.665 408.822 382.934 431.235C352.728 450.183 316.314 455.413 281.208 453.692C227.085 451.038 173.195 432.215 130.566 396.939C87.9371 361.664 57.2919 309.524 50.035 252.887C45.1027 214.396 52.2748 175.362 68.7084 141.724Z" fill="#E6B1B0"/>
<path d="M8.05884 186.326C9.23841 190.75 8.65762 182.606 10.9698 172.641C13.283 162.675 17.2415 166.717 17.2415 166.717" stroke="#293352" stroke-width="0.998588" stroke-linecap="round" stroke-linejoin="round"/>
<path d="M7.33301 176.146L14.5804 173.33" stroke="#293352" stroke-width="0.998588" stroke-linecap="round" stroke-linejoin="round"/>
<path d="M20.5763 169.954C20.5763 169.954 16.2419 178.442 22.7745 182.049" stroke="#293352" stroke-width="0.998588" stroke-linecap="round" stroke-linejoin="round"/>
<path d="M26.7219 167.567C26.7219 167.567 33.8733 171.332 29.393 179.479" stroke="#293352" stroke-width="0.998588" stroke-linecap="round" stroke-linejoin="round"/>
<path d="M21.8208 172.83L26.945 176.375" stroke="#293352" stroke-width="0.998588" stroke-linecap="round" stroke-linejoin="round"/>
<path d="M25.8404 171.268L21.8298 177.315" stroke="#293352" stroke-width="0.998588" stroke-linecap="round" stroke-linejoin="round"/>
<path d="M6.53434 285.229C1.6421 288.556 -5.17044 287.497 -8.68417 282.863C-12.1969 278.229 -11.0793 271.775 -6.18707 268.448C-1.29584 265.121 5.51771 266.179 9.03144 270.813C12.5442 275.446 11.4266 281.9 6.53434 285.229Z" stroke="#293352" stroke-width="0.998588" stroke-linecap="round" stroke-linejoin="round"/>
<path d="M22.0438 290.184C16.6157 293.876 9.05444 292.701 5.15685 287.56C1.25925 282.417 2.49881 275.256 7.92685 271.563C13.3559 267.871 20.9162 269.047 24.8138 274.189C28.7123 279.33 27.4718 286.492 22.0438 290.184Z" stroke="#293352" stroke-width="0.998588" stroke-linecap="round" stroke-linejoin="round"/>
<path d="M10.1122 272.581L5.08398 274.282" stroke="#293352" stroke-width="0.998588" stroke-linecap="round" stroke-linejoin="round"/>
<path d="M10.8087 274.545L3.59131 277.016" stroke="#293352" stroke-width="0.998588" stroke-linecap="round" stroke-linejoin="round"/>
<path d="M11.0766 276.907L3.02148 279.843" stroke="#293352" stroke-width="0.998588" stroke-linecap="round" stroke-linejoin="round"/>
<path d="M10.505 280.139L3.16162 283.317" stroke="#293352" stroke-width="0.998588" stroke-linecap="round" stroke-linejoin="round"/>
<path d="M9.21128 282.625L3.62329 284.82" stroke="#293352" stroke-width="0.998588" stroke-linecap="round" stroke-linejoin="round"/>
<path d="M5.44172 261.106C5.12583 260.208 1.59011 259.571 1.41817 262.05C1.24523 264.529 5.14882 262.469 6.24243 261.149C6.24243 261.149 4.23615 263.703 5.08784 264.207" stroke="#293352" stroke-width="0.998588" stroke-linecap="round" stroke-linejoin="round"/>
<path d="M25.0176 264.195L21.8767 270.375C21.8767 270.375 23.4481 267.285 25.1275 267.568C27.1968 267.916 25.8203 271.122 23.3192 269.942" stroke="#293352" stroke-width="0.998588" stroke-linecap="round" stroke-linejoin="round"/>
<path d="M432.801 361.76L437.733 366.18" stroke="#293352" stroke-width="0.998588" stroke-linecap="round" stroke-linejoin="round"/>
<path d="M437.733 360.605L433.603 366.449" stroke="#293352" stroke-width="0.998588" stroke-linecap="round" stroke-linejoin="round"/>
<path d="M442.583 362.282L447.515 360.545" stroke="#293352" stroke-width="0.998588" stroke-linecap="round" stroke-linejoin="round"/>
<path d="M449.881 355.673L452.88 358.188" stroke="#293352" stroke-width="0.998588" stroke-linecap="round" stroke-linejoin="round"/>
<path d="M455.18 352.65L451.381 365.001" stroke="#293352" stroke-width="0.998588" stroke-linecap="round" stroke-linejoin="round"/>
<path d="M260.032 292.594L273.295 283.948L290.863 285.115L291.96 306.207L279.067 314.94L263.156 313.841L260.032 292.594Z" stroke="#293352" stroke-width="0.998588" stroke-linecap="round" stroke-linejoin="round"/>
<path d="M263.155 313.841L275.996 305.082L291.96 306.206" stroke="#293352" stroke-width="0.998588" stroke-linecap="round" stroke-linejoin="round"/>
<path d="M275.996 305.082L273.295 283.949" stroke="#293352" stroke-width="0.998588" stroke-linecap="round" stroke-linejoin="round"/>
<path d="M260.031 292.593L277.558 294.516L290.862 285.115" stroke="#293352" stroke-width="0.998588" stroke-linecap="round" stroke-linejoin="round"/>
<path d="M277.559 294.516L279.065 314.94" stroke="#293352" stroke-width="0.998588" stroke-linecap="round" stroke-linejoin="round"/>
<path d="M400.154 206.77L394.278 224.07L412.57 221.732L400.154 206.77Z" stroke="#293352" stroke-width="0.998588" stroke-linecap="round" stroke-linejoin="round"/>
<path d="M400.155 206.77L403.424 222.801" stroke="#293352" stroke-width="0.998588" stroke-linecap="round" stroke-linejoin="round"/>
<path d="M402.9 220.231L405.038 219.909L405.537 222.63" stroke="#293352" stroke-width="0.998588" stroke-linecap="round" stroke-linejoin="round"/>
<path d="M124.24 379.9L133.38 384.154" stroke="#293352" stroke-width="0.998588" stroke-linecap="round" stroke-linejoin="round"/>
<path d="M130.429 376.655L127.813 385.698" stroke="#293352" stroke-width="0.998588" stroke-linecap="round" stroke-linejoin="round"/>
<path d="M131.697 372.248C131.697 372.248 132.985 371.147 133.898 372.515C134.812 373.883 133.018 376.738 133.018 376.738L136.683 375.418" stroke="#293352" stroke-width="0.998588" stroke-linecap="round" stroke-linejoin="round"/>
<path d="M262.73 60.424C271.454 65.0675 261.458 76.43 261.458 83.0582C261.458 89.6864 271.454 88.7395 276.452 90.6333C278.451 90.6333 282.45 90.6333 282.342 95.4491" stroke="#293352" stroke-width="0.998588" stroke-linecap="round" stroke-linejoin="round"/>
<path d="M253.005 66.4253C254.522 74.2607 264.015 71.4816 269.822 73.2712C279.802 76.3467 274.267 86.1214 271.283 92.0261C269.498 95.5571 267.721 100.491 270.911 103.84" stroke="#293352" stroke-width="0.998588" stroke-linecap="round" stroke-linejoin="round"/>
<path d="M254.281 69.4638L264.687 61.2752" stroke="#293352" stroke-width="0.998588" stroke-linecap="round" stroke-linejoin="round"/>
<path d="M258.365 71.9077L266.2 65.7511" stroke="#293352" stroke-width="0.998588" stroke-linecap="round" stroke-linejoin="round"/>
<path d="M262.969 78.1354L269.589 73.2097" stroke="#293352" stroke-width="0.998588" stroke-linecap="round" stroke-linejoin="round"/>
<path d="M261.603 85.5078L274.538 76.6961" stroke="#293352" stroke-width="0.998588" stroke-linecap="round" stroke-linejoin="round"/>
<path d="M266.556 88.944L275.572 82.6738" stroke="#293352" stroke-width="0.998588" stroke-linecap="round" stroke-linejoin="round"/>
<path d="M270.393 102.266L281.663 93.5752" stroke="#293352" stroke-width="0.998588" stroke-linecap="round" stroke-linejoin="round"/>
<path d="M270.672 95.4273L278.024 90.5339" stroke="#293352" stroke-width="0.998588" stroke-linecap="round" stroke-linejoin="round"/>
<path d="M64.0224 397.221C57.6577 406.365 44.6734 408.89 35.0188 402.862C25.3653 396.834 22.6983 384.534 29.062 375.389C35.4267 366.245 48.412 363.72 58.0665 369.749C67.72 375.778 70.3861 388.077 64.0224 397.221Z" stroke="#293352" stroke-width="0.998588" stroke-linecap="round" stroke-linejoin="round"/>
<path d="M51.8087 367.115C59.1051 359.005 65.3088 354.407 67.702 355.902C71.3357 358.171 64.808 373.623 53.1212 390.414C41.4355 407.206 29.0149 418.978 25.3813 416.709C22.9881 415.215 25.0044 408.001 29.9996 398.452" stroke="#293352" stroke-width="0.998588" stroke-linecap="round" stroke-linejoin="round"/>
<path d="M26.051 390.369C15.8807 387.597 9.38103 384.361 9.78489 381.774C10.4217 377.696 27.9653 376.777 48.9688 379.72C69.9732 382.662 86.4842 388.354 85.8475 392.432C85.4066 395.252 76.8797 396.562 64.7151 396.128" stroke="#293352" stroke-width="0.998588" stroke-linecap="round" stroke-linejoin="round"/>
<path d="M28.719 376.01C21.0437 362.888 17.2051 352.648 19.8092 351.052C23.2249 348.955 36.4392 362.534 49.3235 381.378C62.2069 400.223 69.8821 417.199 66.4653 419.295C64.2062 420.682 57.6595 415.21 49.7574 405.893" stroke="#293352" stroke-width="0.998588" stroke-linecap="round" stroke-linejoin="round"/>
<path d="M70.6468 364.485C69.6012 365.989 67.465 366.404 65.8775 365.412C64.2911 364.423 63.8523 362.4 64.8989 360.896C65.9445 359.393 68.0807 358.978 69.6682 359.969C71.2546 360.96 71.6934 362.982 70.6468 364.485Z" fill="#293352"/>
<path d="M59.2591 414.375C58.2125 415.879 56.0782 416.294 54.4908 415.302C52.9044 414.313 52.4656 412.29 53.5112 410.787C54.5578 409.283 56.693 408.868 58.2805 409.859C59.8669 410.85 60.3047 412.873 59.2591 414.375Z" fill="#293352"/>
<path d="M40.8927 380.542C39.846 382.046 37.7108 382.461 36.1244 381.469C34.537 380.479 34.0991 378.457 35.1447 376.954C36.1914 375.45 38.3266 375.035 39.913 376.026C41.5004 377.017 41.9383 379.039 40.8927 380.542Z" fill="#293352"/>
<path d="M267.194 295.998H278.972L284.86 286.336L278.972 276.674H267.194L261.303 286.336L267.194 295.998Z" stroke="#293352" stroke-width="0.998588" stroke-linecap="round" stroke-linejoin="round"/>
<path d="M265.483 317.193L259.593 307.531H247.815" stroke="#293352" stroke-width="0.998588" stroke-linecap="round" stroke-linejoin="round"/>
<path d="M249.397 286.336H261.175L267.065 276.674L261.175 267.012H249.397L243.508 276.674L249.397 286.336Z" stroke="#293352" stroke-width="0.998588" stroke-linecap="round" stroke-linejoin="round"/>
<path d="M267.194 276.674H278.972L284.86 267.012L278.972 257.35H267.194L261.303 267.012L267.194 276.674Z" stroke="#293352" stroke-width="0.998588" stroke-linecap="round" stroke-linejoin="round"/>
<path d="M265.483 276.674C265.483 275.847 266.19 275.175 267.064 275.175C267.938 275.175 268.646 275.847 268.646 276.674C268.646 277.502 267.938 278.173 267.064 278.173C266.19 278.173 265.483 277.502 265.483 276.674Z" fill="#293352"/>
<path d="M240.888 256.394C240.888 255.566 241.596 254.895 242.469 254.895C243.343 254.895 244.051 255.566 244.051 256.394C244.051 257.221 243.343 257.893 242.469 257.893C241.596 257.893 240.888 257.221 240.888 256.394Z" fill="#293352"/>
<path d="M263.901 317.193C263.901 316.366 264.609 315.695 265.482 315.695C266.355 315.695 267.064 316.366 267.064 317.193C267.064 318.021 266.355 318.691 265.482 318.691C264.609 318.691 263.901 318.021 263.901 317.193Z" fill="#293352"/>
<path d="M246.233 307.531C246.233 306.704 246.941 306.032 247.815 306.032C248.689 306.032 249.396 306.704 249.396 307.531C249.396 308.359 248.689 309.03 247.815 309.03C246.941 309.03 246.233 308.359 246.233 307.531Z" fill="#293352"/>
<path d="M296.251 267.266C296.251 266.438 296.958 265.769 297.832 265.769C298.706 265.769 299.414 266.438 299.414 267.266C299.414 268.094 298.706 268.765 297.832 268.765C296.958 268.765 296.251 268.094 296.251 267.266Z" fill="#293352"/>
<path d="M257.891 307.531C257.891 306.704 258.599 306.032 259.473 306.032C260.345 306.032 261.054 306.704 261.054 307.531C261.054 308.359 260.345 309.03 259.473 309.03C258.599 309.03 257.891 308.359 257.891 307.531Z" fill="#293352"/>
<path d="M283.279 267.266C283.279 266.438 283.986 265.769 284.859 265.769C285.733 265.769 286.442 266.438 286.442 267.266C286.442 268.094 285.733 268.765 284.859 268.765C283.986 268.765 283.279 268.094 283.279 267.266Z" fill="#293352"/>
<path d="M265.483 295.998C265.483 295.171 266.19 294.499 267.064 294.499C267.938 294.499 268.646 295.171 268.646 295.998C268.646 296.826 267.938 297.497 267.064 297.497C266.19 297.497 265.483 296.826 265.483 295.998Z" fill="#293352"/>
<path d="M284.86 267.266H297.833" stroke="#293352" stroke-width="0.998588" stroke-linecap="round" stroke-linejoin="round"/>
<path d="M267.065 295.998L259.474 307.531" stroke="#293352" stroke-width="0.998588" stroke-linecap="round" stroke-linejoin="round"/>
<path d="M249.397 267.012L242.47 256.394" stroke="#293352" stroke-width="0.998588" stroke-linecap="round" stroke-linejoin="round"/>
<path d="M392.38 133.339C395.04 124.779 403.397 118.531 413.295 118.531C423.527 118.531 432.114 125.212 434.46 134.219" stroke="#293352" stroke-width="0.998588" stroke-linecap="round" stroke-linejoin="round"/>
<path d="M410.823 159.697C399.947 158.534 391.496 149.792 391.496 139.18" stroke="#293352" stroke-width="0.998588" stroke-linecap="round" stroke-linejoin="round"/>
<path d="M435.094 139.18C435.094 150.583 425.333 159.829 413.294 159.829" stroke="#293352" stroke-width="0.998588" stroke-linecap="round" stroke-linejoin="round"/>
<path d="M436.329 126.088C443.147 125.26 447.717 125.71 448.421 127.633C449.831 131.481 435.248 139.77 415.847 146.147C396.447 152.523 379.576 154.574 378.166 150.726C377.412 148.669 381.231 145.343 387.909 141.718" stroke="#293352" stroke-width="0.998588" stroke-linecap="round" stroke-linejoin="round"/>
<path d="M315.042 110.646L317.13 114.655L321.802 115.299L318.421 118.419L319.219 122.827L315.042 120.745L310.863 122.827L311.661 118.419L308.281 115.299L312.952 114.655L315.042 110.646Z" stroke="#293352" stroke-width="0.998588" stroke-linecap="round" stroke-linejoin="round"/>
<path d="M194.935 116.104C194.935 119.968 193.216 123.452 190.467 125.886C187.928 128.158 184.509 129.541 180.761 129.541C180.301 129.541 179.851 129.522 179.411 129.484C176.462 129.219 173.783 128.101 171.644 126.397C169.815 124.948 168.375 123.064 167.515 120.915C166.906 119.419 166.576 117.799 166.576 116.104C166.576 108.69 172.923 102.678 180.761 102.678C182.96 102.678 185.049 103.151 186.918 104.013C189.058 104.988 190.897 106.456 192.266 108.264C193.946 110.471 194.935 113.179 194.935 116.104Z" stroke="#293352" stroke-width="0.998588" stroke-linecap="round" stroke-linejoin="round"/>
<path d="M192.66 118.534C192.66 119.681 191.678 120.613 190.467 120.613C189.256 120.613 188.274 119.681 188.274 118.534C188.274 117.388 189.256 116.458 190.467 116.458C191.678 116.458 192.66 117.388 192.66 118.534Z" stroke="#293352" stroke-width="0.998588" stroke-linecap="round" stroke-linejoin="round"/>
<path d="M172.923 123.812C172.923 124.854 172.424 125.782 171.644 126.397C169.815 124.948 168.375 123.064 167.515 120.915C168.045 120.602 168.675 120.432 169.345 120.432C171.324 120.432 172.923 121.947 172.923 123.812Z" stroke="#293352" stroke-width="0.998588" stroke-linecap="round" stroke-linejoin="round"/>
<path d="M190.467 125.886C187.928 128.158 184.509 129.541 180.76 129.541C180.301 129.541 179.851 129.522 179.411 129.484C179.331 129.124 179.291 128.755 179.291 128.376C179.291 125.289 181.93 122.78 185.189 122.78C187.508 122.78 189.507 124.049 190.467 125.886Z" stroke="#293352" stroke-width="0.998588" stroke-linecap="round" stroke-linejoin="round"/>
<path d="M180.586 107.69C180.586 109.397 179.124 110.781 177.322 110.781C175.521 110.781 174.06 109.397 174.06 107.69C174.06 105.984 175.521 104.602 177.322 104.602C179.124 104.602 180.586 105.984 180.586 107.69Z" stroke="#293352" stroke-width="0.998588" stroke-linecap="round" stroke-linejoin="round"/>
<path d="M180.341 116.458C180.341 117.246 179.665 117.887 178.831 117.887C177.999 117.887 177.322 117.246 177.322 116.458C177.322 115.668 177.999 115.029 178.831 115.029C179.665 115.029 180.341 115.668 180.341 116.458Z" stroke="#293352" stroke-width="0.998588" stroke-linecap="round" stroke-linejoin="round"/>
<path d="M192.266 108.264C191.887 108.387 191.467 108.444 191.037 108.444C188.738 108.444 186.888 106.683 186.888 104.505C186.888 104.335 186.898 104.174 186.918 104.013C189.058 104.988 190.897 106.456 192.266 108.264Z" stroke="#293352" stroke-width="0.998588" stroke-linecap="round" stroke-linejoin="round"/>
<path d="M490.878 310.204L492.408 306.947L489.931 305.652C490.02 305.073 490.037 304.492 489.981 303.922L492.523 302.75L491.172 299.424L488.456 300.165C488.094 299.706 487.671 299.286 487.196 298.912L488.12 296.38L484.683 294.931L483.315 297.276C482.702 297.193 482.09 297.177 481.488 297.23L480.251 294.822L476.737 296.101L477.523 298.673C477.037 299.016 476.594 299.416 476.199 299.867L473.525 298.992L471.994 302.248L474.472 303.544C474.384 304.123 474.366 304.703 474.422 305.274L471.88 306.446L473.232 309.772L475.946 309.03C476.308 309.489 476.732 309.91 477.206 310.284L476.283 312.816L479.72 314.265L481.089 311.919C481.7 312.003 482.313 312.019 482.915 311.966L484.152 314.373L487.664 313.095L486.88 310.522C487.365 310.179 487.809 309.779 488.204 309.329L490.878 310.204ZM480.425 308.382C478.218 307.452 477.225 305.005 478.206 302.915C479.188 300.825 481.773 299.884 483.979 300.814C486.185 301.743 487.179 304.191 486.196 306.281C485.215 308.371 482.631 309.312 480.425 308.382Z" stroke="#293352" stroke-width="0.998588" stroke-linecap="round" stroke-linejoin="round"/>
<path d="M462.777 322.206L464.854 317.783L461.49 316.024C461.61 315.237 461.635 314.449 461.558 313.674L465.01 312.083L463.178 307.564L459.489 308.572C458.997 307.948 458.424 307.379 457.778 306.871L459.032 303.431L454.363 301.463L452.505 304.649C451.674 304.537 450.844 304.513 450.025 304.585L448.345 301.315L443.575 303.052L444.639 306.545C443.979 307.011 443.378 307.556 442.841 308.168L439.21 306.98L437.133 311.402L440.497 313.161C440.377 313.948 440.354 314.736 440.43 315.511L436.978 317.102L438.811 321.619L442.498 320.613C442.99 321.237 443.565 321.805 444.211 322.314L442.955 325.755L447.625 327.722L449.483 324.536C450.313 324.65 451.143 324.672 451.963 324.6L453.642 327.87L458.414 326.132L457.349 322.638C458.009 322.172 458.609 321.629 459.146 321.017L462.777 322.206ZM448.581 319.731C445.584 318.469 444.235 315.145 445.568 312.306C446.901 309.468 450.41 308.19 453.406 309.453C456.403 310.715 457.753 314.041 456.419 316.879C455.087 319.717 451.577 320.995 448.581 319.731Z" stroke="#293352" stroke-width="0.998588" stroke-linecap="round" stroke-linejoin="round"/>
<path d="M207.798 290.797C206.409 293.293 204.859 295.66 203.167 297.883C194.062 309.879 180.843 317.896 166.369 321.11C159.188 322.703 151.692 323.111 144.232 322.234C136.874 321.374 129.555 319.252 122.606 315.783C121.219 315.09 119.865 314.349 118.558 313.573C117.253 312.808 115.989 311.999 114.772 311.154C113.289 310.136 111.872 309.061 110.51 307.932C110.503 307.929 110.5 307.921 110.493 307.917C110.41 307.85 110.327 307.784 110.251 307.705C110.233 307.689 110.22 307.682 110.22 307.682C102.227 300.999 96.3176 292.616 92.7778 283.426C91.3264 279.658 90.2667 275.743 89.645 271.753C87.7157 259.607 89.7209 246.782 96.2286 235.088C105.859 217.783 123.187 206.809 142.113 203.95C155.11 201.981 168.878 203.84 181.42 210.102C193.267 216.017 202.308 225.011 208.02 235.498C217.168 252.252 217.795 272.835 207.798 290.797Z" fill="#BE5C5A"/>
<path d="M207.799 290.801C206.41 293.291 204.86 295.658 203.171 297.884L201.951 296.975L199.852 295.924L197.643 294.825L198.013 292.297L197.893 290.015C197.763 287.733 199.502 289.598 200.942 288.907C202.361 288.197 203.491 286.104 203.491 286.104C203.491 286.104 204.51 283.065 204.161 281.843C203.811 280.622 202.261 277.734 202.261 277.734L198.682 282.44L195.734 282.222L192.795 280.764L192.425 277.024L190.965 276.304L190.355 274.155L182.468 272.062L181.569 270.566C180.669 269.07 177.04 268.303 177.04 268.303L177.93 266.352L179.329 264.175C180.739 261.997 182.198 265.614 182.198 265.614L183.868 266.438L186.967 263.976L187.786 260.444L192.835 260.718C192.835 260.718 192.475 258.986 194.154 258.351C195.834 257.726 195.094 254.27 194.454 252.992C193.794 251.723 191.495 252.746 191.495 252.746C191.495 252.746 188.926 249.043 188.576 247.566C188.226 246.099 193.474 246.581 195.724 245.133C197.963 243.694 197.203 240.692 196.103 240.626C195.014 240.55 198.253 233.903 204.5 235.73C206.24 236.242 207.339 236.062 208.019 235.494C217.166 252.253 217.796 272.839 207.799 290.801Z" fill="white"/>
<path d="M164.084 265.188L161.945 267.735C161.945 267.735 161.035 265.68 159.735 266.797C158.436 267.915 157.776 268.483 157.776 268.483L156.327 272.327L153.728 273.918L152.138 273.132L150.639 272.375L149.009 271.56L147.45 274.363L146.18 276.636C147.14 278.406 148.469 279.713 148.469 279.713L151.229 284.324L154.517 285.962C156.537 286 158.686 286.436 158.686 286.436L160.995 287.581L160.175 292.325C160.175 292.325 158.436 295.005 157.276 294.266L156.107 293.537L154.207 299.768L154.127 303.196C154.127 303.196 152.998 303.641 151.858 304C150.709 304.36 151.438 304.171 149.049 304.872C146.66 305.572 146.85 305.544 144.911 306.065C142.971 306.585 140.162 308.167 140.162 308.167L140.332 311.462L135.764 312.096L133.205 310.809L133.835 308.725L134.135 305.468L133.785 303.035L132.685 300.885L135.764 298.243L135.084 296.586L133.335 293.291L129.636 295.185L127.737 296.151L123.439 294.323L122.969 291.852L121.509 287.392L120.17 284.627L117.791 281.578L117.191 278.955L118.53 276.55L119.24 275.282L117.051 272.488L116.451 270.5L112.762 267.328C112.762 267.328 113.832 267.261 113.592 265.851C113.352 264.44 115.701 262.063 115.701 262.063C117.031 262.726 121.019 265.358 121.019 265.358L124.508 265.813C124.548 265.813 125.208 265.794 125.888 264.563C126.587 263.303 128.667 261.41 128.667 261.41C128.667 261.41 127.057 256.117 128.207 255.406C129.346 254.677 130.526 251.231 130.526 251.231L131.446 249.574C131.446 249.574 129.276 248.674 128.867 247.585C128.457 246.487 123.109 247.945 123.109 247.945L119.42 250.369L116.601 252.49L115.341 254.753C115.341 254.753 112.772 251.827 112.762 253.465C112.752 255.103 111.603 258.399 111.603 258.399C111.603 258.399 112.133 258.664 111.433 259.933C110.723 261.192 109.973 261.135 108.394 261.315C106.815 261.495 102.436 260.927 102.436 260.927C102.436 260.927 101.436 264.43 102.126 265.036L102.806 265.623C102.806 265.623 101.736 268.17 100.677 267.64C99.6071 267.1 98.0977 266.352 98.0977 266.352L94.489 267.735L90.5304 271.92L89.6407 271.75C87.7114 259.611 89.7207 246.78 96.2283 235.086C105.855 217.787 123.189 206.812 142.112 203.953C142.342 204.919 142.592 205.79 142.592 205.79L141.622 210.467L140.342 212.778L139.243 214.757L137.693 217.541L141.552 221.006L140.702 225.106L138.553 226.385L137.933 229.462L141.622 236.289L142.662 238.969C142.662 238.969 141.512 241.393 141.772 243.059C141.772 243.059 142.222 245.616 144.191 246.629C146.16 247.633 148.749 248.835 148.749 248.835L148.539 252.642L147.65 253.626L149.129 257.707C153.638 259.383 153.208 260.785 153.638 259.383L154.077 257.991L157.146 256.94L161.055 261.362C161.055 261.362 162.265 261.211 163.354 262.518C164.454 263.824 166.233 262.641 164.084 265.188Z" fill="white"/>
<path d="M111.104 298.168C111.214 299.512 109.415 301.198 109.415 301.198L110.884 301.927L111.334 305.676L110.224 307.684C102.227 300.999 96.3192 292.619 92.7805 283.425L93.5802 279.41L97.109 278.936C97.109 278.936 100.268 276.948 101.667 277.478C103.067 278.027 104.346 281.237 104.346 281.237C104.346 281.237 105.376 285.631 105.216 285.546L105.196 285.536L105.136 285.574L105.216 285.546L106.656 286.265L107.065 287.998L105.056 291.596L101.837 291.606C101.837 291.606 101.197 291.284 101.138 292.865C101.078 294.456 102.807 295.639 102.807 295.639L106.286 294.797L107.215 291.388L110.634 290.754C110.634 290.754 110.144 292.846 110.944 293.244L111.754 293.651L112.233 296.151C112.233 296.151 110.994 296.823 111.104 298.168Z" fill="white"/>
<path d="M127.639 303.523C127.33 302.716 127.2 302.006 125.07 300.943C122.948 299.883 123.055 300.263 122.231 301.141C121.4 302.015 120.445 302.508 119.051 302.212C117.658 301.916 118.383 303.412 118.383 303.412L118.716 307.454L114.773 311.153C115.99 311.998 117.253 312.808 118.557 313.573L119.401 311.131L125.959 312.979C124.567 312.586 125.389 310.785 125.389 310.785L123.987 310.085C123.987 310.085 127.951 304.323 127.639 303.523Z" fill="white"/>
<path d="M168.94 282.501L166.791 280.448L164.337 281.184L163.288 283.069L162.531 284.427L163.547 286.276L165.562 288.572L166.709 286.512C166.709 286.512 169.877 286.532 171.534 284.779C173.192 283.024 168.94 282.501 168.94 282.501Z" fill="white"/>
<path d="M162.629 273.232L166.628 275.229L166.784 274.338C166.939 273.448 167.868 272.39 167.868 272.39L164.804 269.327L162.629 273.232Z" fill="white"/>
<path d="M161.265 317.313L160.112 315.717L158.778 315.051L154.685 315.055L152.358 319.236C152.358 319.236 150.133 318.949 147.201 318.708C144.272 318.461 144.997 319.606 144.997 319.606L144.231 322.234C151.691 323.112 159.187 322.702 166.369 321.109C165.19 320.317 163.749 319.58 163.749 319.58L161.265 317.313Z" fill="white"/>
<path d="M207.798 290.797C206.409 293.293 204.859 295.66 203.167 297.883C194.062 309.879 180.843 317.896 166.369 321.11C159.188 322.703 151.692 323.111 144.232 322.234C136.874 321.374 129.555 319.252 122.606 315.783C121.219 315.09 119.865 314.349 118.558 313.573C117.253 312.808 115.989 311.999 114.772 311.154C113.289 310.136 111.872 309.061 110.51 307.932C110.503 307.929 110.5 307.921 110.493 307.917C110.41 307.85 110.327 307.784 110.251 307.705C110.233 307.689 110.22 307.682 110.22 307.682C102.227 300.999 96.3176 292.616 92.7778 283.426C91.3264 279.658 90.2667 275.743 89.645 271.753C87.7157 259.607 89.7209 246.782 96.2286 235.088C105.859 217.783 123.187 206.809 142.113 203.95C155.11 201.981 168.878 203.84 181.42 210.102C193.267 216.017 202.308 225.011 208.02 235.498C217.168 252.252 217.795 272.835 207.798 290.797Z" stroke="#293352" stroke-width="0.998588" stroke-linecap="round" stroke-linejoin="round"/>
<path d="M166.369 321.108C159.187 322.701 151.691 323.11 144.231 322.233L144.997 319.605C144.997 319.605 144.273 318.46 147.201 318.706C150.133 318.947 152.358 319.235 152.358 319.235L154.685 315.053L158.778 315.05L160.112 315.716L161.265 317.312L163.749 319.579C163.749 319.579 165.19 320.316 166.369 321.108Z" stroke="#293352" stroke-width="0.998588" stroke-linecap="round" stroke-linejoin="round"/>
<path d="M208.02 235.497C207.342 236.064 206.244 236.242 204.503 235.732C198.255 233.901 195.01 240.552 196.105 240.626C197.205 240.694 197.965 243.692 195.723 245.134C193.472 246.58 188.23 246.098 188.575 247.567C188.927 249.04 191.49 252.743 191.49 252.743C191.49 252.743 193.789 251.721 194.448 252.997C195.098 254.275 195.836 257.727 194.153 258.355C192.476 258.986 192.836 260.723 192.836 260.723L187.781 260.443L186.969 263.977L183.866 266.441L182.202 265.61C182.202 265.61 180.74 262.001 179.33 264.176L177.933 266.35L177.035 268.3C177.035 268.3 180.666 269.068 181.572 270.565L182.472 272.058L190.352 274.158L190.969 276.301L192.425 277.028L192.792 280.76L195.735 282.221L198.677 282.443L202.263 277.732C202.263 277.732 203.812 280.627 204.16 281.843C204.514 283.065 203.496 286.103 203.496 286.103C203.496 286.103 202.364 288.198 200.938 288.905C199.507 289.602 197.763 287.737 197.889 290.018L198.007 292.296L197.644 294.822L199.854 295.926L201.95 296.973L203.166 297.882" stroke="#293352" stroke-width="0.998588" stroke-linecap="round" stroke-linejoin="round"/>
<path d="M89.6448 271.753L90.5265 271.916L94.493 267.73L98.0957 266.348C98.0957 266.348 99.6112 267.105 100.677 267.636C101.741 268.169 102.811 265.627 102.811 265.627L102.125 265.032C101.434 264.434 102.44 260.923 102.44 260.923C102.44 260.923 106.813 261.5 108.395 261.319C109.976 261.138 110.728 261.195 111.432 259.932C112.136 258.667 111.603 258.401 111.603 258.401C111.603 258.401 112.758 255.103 112.764 253.467C112.77 251.831 115.339 254.752 115.339 254.752L116.599 252.486L119.425 250.365L123.106 247.945C123.106 247.945 128.455 246.489 128.87 247.585C129.276 248.678 131.448 249.574 131.448 249.574L130.528 251.227C130.528 251.227 129.349 254.676 128.205 255.402C127.057 256.118 128.669 261.409 128.669 261.409C128.669 261.409 126.587 263.306 125.888 264.564C125.184 265.828 124.509 265.816 124.509 265.816L121.016 265.362C121.016 265.362 117.032 262.728 115.697 262.061C115.697 262.061 113.357 264.441 113.591 265.847C113.828 267.261 112.766 267.328 112.766 267.328L116.453 270.498L117.052 272.485L119.245 275.277L118.534 276.553L117.196 278.96L117.787 281.58L120.175 284.624L121.512 287.388L122.972 291.853L123.441 294.322L127.737 296.15L129.636 295.181L133.333 293.29L135.08 296.586L135.769 298.243L132.69 300.882L133.783 303.035L134.14 305.472L133.835 308.729L133.201 310.811L135.768 312.093L140.328 311.467L140.169 308.165C140.169 308.165 142.975 306.588 144.912 306.063C146.855 305.541 146.657 305.572 149.051 304.875C151.442 304.169 150.706 304.363 151.855 303.999C152.995 303.639 154.126 303.2 154.126 303.2L154.21 299.767L156.103 293.535L157.272 294.265C158.438 295.002 160.175 292.329 160.175 292.329L160.992 287.581L158.687 286.431C158.687 286.431 156.54 286.003 154.52 285.965L151.225 284.319L148.474 279.716C148.474 279.716 147.144 278.407 146.182 276.638L147.447 274.366L149.006 271.564L150.637 272.378L152.14 273.128L153.73 273.923L156.326 272.322L157.776 268.479C157.776 268.479 158.436 267.911 159.735 266.798C161.039 265.679 161.947 267.731 161.947 267.731L164.086 265.186C166.233 262.644 164.458 263.821 163.36 262.515C162.262 261.208 161.055 261.363 161.055 261.363L157.144 256.939L154.078 257.994L153.641 259.383C153.207 260.782 153.641 259.383 149.133 257.703L147.648 253.625L148.54 252.642L148.754 248.835C148.754 248.835 146.158 247.636 144.194 246.632C142.228 245.617 141.774 243.057 141.774 243.057C141.512 241.394 142.661 238.972 142.661 238.972L141.625 236.285L137.932 229.458L138.557 226.384L140.699 225.105L141.548 221.01L137.691 217.543L139.24 214.76L140.341 212.781L141.627 210.47L142.589 205.787C142.589 205.787 142.346 204.923 142.113 203.95" stroke="#293352" stroke-width="0.998588" stroke-linecap="round" stroke-linejoin="round"/>
<path d="M110.511 307.932C110.411 307.817 110.3 307.737 110.249 307.704C110.232 307.688 110.219 307.681 110.219 307.681L111.335 305.676L110.889 301.93L109.419 301.196C109.419 301.196 111.209 299.512 111.103 298.17C110.994 296.819 112.23 296.147 112.23 296.147L111.751 293.649L110.949 293.249C110.147 292.848 110.634 290.75 110.634 290.75L107.215 291.384L106.284 294.793L102.808 295.636C102.808 295.636 101.08 294.455 101.137 292.868C101.2 291.284 101.84 291.604 101.84 291.604L105.057 291.595L107.06 287.994L106.66 286.27L105.211 285.546" stroke="#293352" stroke-width="0.998588" stroke-linecap="round" stroke-linejoin="round"/>
<path d="M105.198 285.54L105.212 285.547C105.373 285.627 104.344 281.239 104.344 281.239C104.344 281.239 103.069 278.025 101.666 277.479C100.268 276.944 97.108 278.939 97.108 278.939L93.5803 279.413L92.7776 283.425" stroke="#293352" stroke-width="0.998588" stroke-linecap="round" stroke-linejoin="round"/>
<path d="M119.4 311.131L118.557 313.574C117.253 312.808 115.989 311.999 114.772 311.153L118.716 307.454L118.382 303.412C118.382 303.412 117.657 301.916 119.05 302.213C120.444 302.509 121.399 302.015 122.23 301.141C123.054 300.263 122.947 299.884 125.069 300.944C127.199 302.007 127.329 302.716 127.638 303.523C127.951 304.324 123.986 310.086 123.986 310.086L125.388 310.785C125.388 310.785 124.567 312.586 125.959 312.979L119.4 311.131Z" stroke="#293352" stroke-width="0.998588" stroke-linecap="round" stroke-linejoin="round"/>
<path d="M164.336 281.183L166.79 280.448L168.939 282.501C168.939 282.501 173.192 283.023 171.534 284.778C169.877 286.531 166.708 286.512 166.708 286.512L165.561 288.572L163.546 286.275L162.531 284.427L163.287 283.069L164.336 281.183Z" stroke="#293352" stroke-width="0.998588" stroke-linecap="round" stroke-linejoin="round"/>
<path d="M167.868 272.39C167.868 272.39 166.938 273.448 166.784 274.339L166.628 275.229L162.629 273.232L164.804 269.327L167.868 272.39Z" stroke="#293352" stroke-width="0.998588" stroke-linecap="round" stroke-linejoin="round"/>
<path d="M398.035 432.047C392.947 436.507 353.756 464.847 297.826 460.28C294.817 433.46 283.341 323.27 296.392 306C296.392 306 328.058 290.089 357.228 296.769C386.397 303.449 397.75 309.849 399.829 315.389C401.405 319.579 399.155 397.597 398.035 432.047Z" fill="#293352"/>
<path d="M356.261 308.54C339.46 323.87 317.817 320.63 318.292 308.86C318.368 307.019 320.237 304.74 320.237 304.74C320.237 304.74 319.99 304.35 319.581 303.68C318.955 302.68 317.94 301.05 316.763 299.15C314.683 295.76 312.083 291.5 310.27 288.4C308.75 285.76 346.617 261.22 346.617 275.33C346.617 295.21 355.881 298.95 355.881 298.95C359.346 300.43 362.592 302.769 356.261 308.54Z" fill="white"/>
<path d="M356.261 308.54C339.46 323.87 317.817 320.63 318.292 308.86C318.368 307.019 320.237 304.74 320.237 304.74C320.237 304.74 319.99 304.35 319.581 303.68C318.955 302.68 317.94 301.05 316.763 299.15C314.683 295.76 312.083 291.5 310.27 288.4C308.75 285.76 346.617 261.22 346.617 275.33C346.617 295.21 355.881 298.95 355.881 298.95C359.346 300.43 362.592 302.769 356.261 308.54Z" stroke="#293352" stroke-linecap="round" stroke-linejoin="round"/>
<path d="M366.879 338.901C366.879 338.901 363.492 351.136 365.101 354.645" stroke="white" stroke-linecap="round" stroke-linejoin="round"/>
<path d="M362.924 303.356C362.924 315.169 329.482 326.736 319.682 314.89" stroke="white" stroke-linecap="round" stroke-linejoin="round"/>
<path d="M335.416 289.731C335.416 289.731 333.165 298.627 322.744 305.583C322.744 305.583 322.212 304.363 320.493 303.71C320.19 303.595 319.868 303.701 319.582 303.68C318.955 302.68 317.941 301.05 316.764 299.151C322.089 295.081 335.416 289.731 335.416 289.731Z" fill="#293352"/>
<path d="M340.101 278.791C340.101 278.791 339.993 287.574 338.228 289.356C324.983 302.74 312.039 303.797 309.902 300.267C295.523 276.513 298.921 270.248 297.455 266.204C294.865 259.06 291.686 247.403 293.088 240.341C296.219 224.566 324.434 212.378 339.261 228.196C346.379 235.79 348.63 252.262 347.126 265.98" fill="white"/>
<path d="M340.101 278.791C340.101 278.791 339.993 287.574 338.228 289.356C324.983 302.74 312.039 303.797 309.902 300.267C295.523 276.513 298.921 270.248 297.455 266.204C294.865 259.06 291.686 247.403 293.088 240.341C296.219 224.566 324.434 212.378 339.261 228.196C346.379 235.79 348.63 252.262 347.126 265.98" stroke="#293352" stroke-linecap="round" stroke-linejoin="round"/>
<path d="M302.248 262.124C303.398 264.074 302.768 267.401 301.254 271.967C299.741 276.531 301.076 278.19 306.899 278.65" fill="white"/>
<path d="M302.248 262.124C303.398 264.074 302.768 267.401 301.254 271.967C299.741 276.531 301.076 278.19 306.899 278.65" stroke="#293352" stroke-linecap="round" stroke-linejoin="round"/>
<path d="M306.898 286.56C306.898 286.56 314.511 285.829 317.97 283.822" stroke="#293352" stroke-linecap="round" stroke-linejoin="round"/>
<path d="M354.993 241.22C354.991 235.277 349.431 223.088 339.665 221.72C334.062 215.539 326.061 213.266 316.361 215.616C293.946 221.044 287.123 244.358 286.138 248.223C286.042 248.582 286.002 248.781 286.002 248.781L292.002 247.176L289.415 252.493L292.561 254.68L291.84 255.521L295.481 259.219L294.341 252.465C295.046 248.095 299.807 242.003 299.807 242.003C297.03 245.512 296.681 250.194 296.681 250.194C298.563 245 309.97 240.23 309.97 240.23C306.276 243.386 304.308 249.571 304.308 249.571C307.826 245.011 316.055 242.057 321.319 240.49C323.098 245.005 325.916 249.715 329.942 252.324C333.734 254.783 333.601 259.856 333.601 259.856C340.193 264.397 342.127 272.22 342.127 272.22L346.719 278.84C346.719 278.84 355.001 268.087 354.993 241.22Z" fill="#293352"/>
<path d="M335.674 261.519C334.137 258.045 339.719 248.65 343.67 249.814C345.893 250.468 348.796 254.737 349.362 259.223C349.927 263.709 346.918 272.183 343.709 274.07C341.672 275.266 339.995 272.004 339.995 272.004" fill="white"/>
<path d="M335.674 261.519C334.137 258.045 339.719 248.65 343.67 249.814C345.893 250.468 348.796 254.737 349.362 259.223C349.927 263.709 346.918 272.183 343.709 274.07C341.672 275.266 339.995 272.004 339.995 272.004" stroke="#293352" stroke-linecap="round" stroke-linejoin="round"/>
<path d="M93.5066 431.247L200.754 404.835L424.466 432.048L366.877 473.55L93.5066 431.247Z" fill="white"/>
<path d="M93.5066 431.247L200.754 404.834L424.466 432.048" fill="white"/>
<path d="M93.5066 431.247L200.754 404.834L424.466 432.048" stroke="#293352" stroke-linecap="round" stroke-linejoin="round"/>
<path d="M186.322 436.548L229.74 416.335L284.629 419.32L260.221 441.307L186.322 436.548Z" fill="white"/>
<path d="M186.322 436.548L229.74 416.335L284.629 419.32L260.221 441.307L186.322 436.548Z" stroke="#293352" stroke-linecap="round" stroke-linejoin="round"/>
<path d="M298.513 305.014C284.587 311.013 281.584 324.5 257.926 377.807C257.926 377.807 247.412 380.08 241.778 393.532C236.146 406.982 245.534 417.604 256.424 417.238C256.424 417.238 260.777 421.224 269.678 420.828C278.58 420.433 318.124 356.779 318.124 356.779L298.513 305.014Z" fill="#293352"/>
<path d="M262.067 380.927C268.297 386.774 271.872 395.341 269.974 404.835" stroke="white" stroke-linecap="round" stroke-linejoin="round"/>
<path d="M268.075 383.736C268.075 383.736 275.731 385.495 276.911 395.824" stroke="white" stroke-linecap="round" stroke-linejoin="round"/>
<path d="M290.477 353.538C290.477 353.538 284.63 339.942 286.852 323.868" stroke="white" stroke-linecap="round" stroke-linejoin="round"/>
<path d="M289.383 339.942C288.801 344.142 292.921 366.499 292.893 390.014" stroke="white" stroke-linecap="round" stroke-linejoin="round"/>
<path d="M393.469 309.416C410.89 318.64 412.961 347.011 396.523 380.927C384.917 404.871 368.89 440.22 358.752 442.594C348.613 444.967 338.73 438.311 338.73 438.311C338.73 438.311 330.181 437.891 327.605 431.494C320.544 413.96 338.494 391.901 345.556 397.187C345.556 397.187 368.108 345.518 372.218 342.264" fill="#293352"/>
<path d="M325.988 420.856C323.65 408.791 341.675 394.55 345.555 397.187C345.555 397.187 358.949 397.977 360.952 407.736" stroke="white" stroke-linecap="round" stroke-linejoin="round"/>
<path d="M375.054 423.435C382.897 408.863 396.522 380.927 396.522 380.927" stroke="white" stroke-linecap="round" stroke-linejoin="round"/>
<path d="M345.556 397.186C345.556 397.186 354.945 391.274 361.953 396.868" stroke="white" stroke-linecap="round" stroke-linejoin="round"/>
<path d="M348.721 390.014C348.721 390.014 353.907 378.036 359.186 366.984C364.466 355.93 376.474 339.693 381.481 338.902" stroke="white" stroke-linecap="round" stroke-linejoin="round"/>
<path d="M249.795 411.57C248.704 411.509 247.612 411.219 246.568 410.639C230.403 401.769 217.883 387.111 210.327 376.591C205.078 369.281 202.23 363.961 202.23 363.961L206.103 346.48C206.103 346.48 209.748 356.441 224.394 366.31C239.031 376.18 256.44 379.381 262.069 389.27C267.052 398.031 258.272 412.019 249.795 411.57Z" fill="white"/>
<path d="M249.796 411.57C249.625 410.4 249.322 409.17 248.827 407.88C245.439 398.94 224.936 381.17 224.936 381.17C220.057 381.009 214.694 378.87 210.328 376.59C205.079 369.28 202.231 363.96 202.231 363.96L206.104 346.48C206.104 346.48 209.749 356.44 224.395 366.309C239.032 376.179 256.441 379.38 262.07 389.269C267.053 398.03 258.273 412.019 249.796 411.57Z" fill="white"/>
<path d="M249.795 411.57C248.704 411.509 247.612 411.219 246.568 410.639C230.403 401.769 217.883 387.111 210.327 376.591C205.078 369.281 202.23 363.961 202.23 363.961L206.103 346.48C206.103 346.48 209.748 356.441 224.394 366.31C239.031 376.18 256.44 379.381 262.069 389.27C267.052 398.031 258.272 412.019 249.795 411.57Z" stroke="#293352" stroke-linecap="round" stroke-linejoin="round"/>
<path d="M213.25 362.935C213.25 362.935 211.247 372.263 205.969 370.172C203.107 369.039 197.632 360.077 196.596 355.561L213.25 362.935Z" fill="white"/>
<path d="M213.25 362.935C213.25 362.935 211.247 372.263 205.969 370.172C203.107 369.039 197.632 360.077 196.596 355.561L213.25 362.935Z" stroke="#293352" stroke-linecap="round" stroke-linejoin="round"/>
<path d="M189.987 305.554L194.297 303.205C194.297 303.205 206.477 303.32 214.033 309.789C220.896 315.665 224.372 324.879 224.372 324.879C224.372 324.879 251.041 309.367 278.267 318.268L289.382 383.483L238.322 387.031L206.454 355.108L189.987 305.554Z" fill="white"/>
<path d="M189.987 305.554L194.297 303.205C194.297 303.205 206.477 303.32 214.033 309.789C220.896 315.665 224.372 324.879 224.372 324.879C224.372 324.879 251.041 309.367 278.267 318.268L289.382 383.483L238.322 387.031L206.454 355.108L189.987 305.554Z" stroke="#293352" stroke-linecap="round" stroke-linejoin="round"/>
<path d="M292.89 386.09C292.89 386.09 286.9 385.901 278.889 386.18C266.777 386.58 250.042 388.02 242.391 392.71L242.031 392.58L235.026 390.01C235.026 390.01 234.978 389.941 234.884 389.79C233.592 387.77 223.18 372.04 208.325 365.63L187.289 303.71C187.289 303.71 209.131 304.74 221.053 325.49L227.043 327.77C227.043 327.77 262.687 316.651 282.638 320.651L292.89 386.09Z" fill="#BE5C5A"/>
<path d="M234.883 389.79C233.592 387.769 223.179 372.04 208.324 365.63L187.289 303.71C187.289 303.71 209.131 304.74 221.053 325.49L234.883 389.79Z" fill="#293352"/>
<path d="M278.889 386.18C266.777 386.58 250.042 388.02 242.391 392.71L242.03 392.58L228.039 330.02C228.039 330.02 239.484 327.311 243.008 328.68C243.008 328.68 266.276 346.774 278.889 386.18Z" fill="#293352"/>
<path d="M292.89 386.09C292.89 386.09 286.9 385.901 278.889 386.18C266.777 386.58 250.042 388.02 242.391 392.71L242.031 392.58L235.026 390.01C235.026 390.01 234.978 389.941 234.884 389.79C233.592 387.77 223.18 372.04 208.325 365.63L187.289 303.71C187.289 303.71 209.131 304.74 221.053 325.49L227.043 327.77C227.043 327.77 262.687 316.651 282.638 320.651L292.89 386.09Z" stroke="#293352" stroke-linecap="round" stroke-linejoin="round"/>
<path d="M227.041 327.772L240.778 387.802" stroke="#293352" stroke-linecap="round" stroke-linejoin="round"/>
<path d="M235.027 390.015L221.681 330.023" stroke="#293352" stroke-linecap="round" stroke-linejoin="round"/>
<path d="M201.121 364.054C198.07 363.159 191.93 343.867 194.745 335.565C194.745 335.565 198.086 329.453 199.445 329.035C201.576 328.38 210.157 328.572 209.742 330.092C208.782 333.609 202.2 333.55 202.2 333.55L200.063 337.668L200.155 339.943C200.155 339.943 203.253 337.562 204.397 337.626C204.979 337.659 208.021 339.23 210.431 340.575C212.494 341.725 213.754 342.347 213.292 343.393C211.765 346.852 205.254 344.425 205.254 344.425L202.811 348.307C202.811 348.307 205.174 348.738 206.211 348.864C207.346 349.001 215.835 355.007 215.576 355.76C214.562 358.7 206.415 355.521 206.415 355.521L204.972 356.785C204.972 356.785 210.977 358.421 211.587 358.658C212.542 359.029 216.198 361.994 216.141 362.332C215.701 364.93 210.659 363.019 210.659 363.019L206.248 362.83C206.248 362.83 205.359 363.738 203.888 364.114" fill="white"/>
<path d="M201.121 364.054C198.07 363.159 191.93 343.867 194.745 335.565C194.745 335.565 198.086 329.453 199.445 329.035C201.576 328.38 210.157 328.572 209.742 330.092C208.782 333.609 202.2 333.55 202.2 333.55L200.063 337.668L200.155 339.943C200.155 339.943 203.253 337.562 204.397 337.626C204.979 337.659 208.021 339.23 210.431 340.575C212.494 341.725 213.754 342.347 213.292 343.393C211.765 346.852 205.254 344.425 205.254 344.425L202.811 348.307C202.811 348.307 205.174 348.738 206.211 348.864C207.346 349.001 215.835 355.007 215.576 355.76C214.562 358.7 206.415 355.521 206.415 355.521L204.972 356.785C204.972 356.785 210.977 358.421 211.587 358.658C212.542 359.029 216.198 361.994 216.141 362.332C215.701 364.93 210.659 363.019 210.659 363.019L206.248 362.83C206.248 362.83 205.359 363.738 203.888 364.114" stroke="#293352" stroke-linecap="round" stroke-linejoin="round"/>
<path d="M200.155 339.942C200.155 339.942 197.339 342.464 196.571 343.19C195.802 343.917 196.018 346.242 196.018 346.242" stroke="#293352" stroke-linecap="round" stroke-linejoin="round"/>
<path d="M198.091 351.356C198.073 353.903 199.707 355.439 200.45 356.259C201.194 357.08 199.261 359.312 201.393 360.914" stroke="#293352" stroke-linecap="round" stroke-linejoin="round"/>
<path d="M338.69 431.87C332.662 433.599 326.113 422.441 318.12 410.261V410.251C312.843 402.211 306.939 393.721 300.151 388.221C299.61 387.791 299.06 387.371 298.51 386.971L302.478 366.001C310.716 370.551 315.823 377.841 324.376 385.331C338.14 397.401 350.338 404.81 353.716 410.151C357.096 415.491 349.018 428.9 338.69 431.87Z" fill="white"/>
<path d="M318.12 410.25C312.843 402.21 306.939 393.72 300.152 388.22C301.368 388.2 302.297 388.07 302.782 387.8C302.782 387.8 313.508 397 318.12 410.25Z" fill="white"/>
<path d="M338.69 431.87C332.662 433.599 326.113 422.441 318.12 410.261V410.251C312.843 402.211 306.939 393.721 300.151 388.221C299.61 387.791 299.06 387.371 298.51 386.971L302.478 366.001C310.716 370.551 315.823 377.841 324.376 385.331C338.14 397.401 350.338 404.81 353.716 410.151C357.096 415.491 349.018 428.9 338.69 431.87Z" stroke="#293352" stroke-linecap="round" stroke-linejoin="round"/>
<path d="M304.708 386.179C304.376 386.909 303.702 387.43 302.782 387.8C302.572 387.89 302.355 387.959 302.126 388.03C302.078 388.039 302.012 388.05 301.946 388.071C295.576 389.821 281.243 386.179 281.243 386.179C281.243 386.179 271.856 381.48 271.286 380.369C270.935 379.659 270.508 378.46 270.233 377.67C270.081 377.201 269.976 376.879 269.976 376.879C269.976 376.879 266.598 374.901 266.217 373.321C265.848 371.741 265.087 371.339 267.157 371.039C269.226 370.749 280.484 371.039 280.484 371.039L268.286 365.8C268.286 365.8 260.208 361.509 259.459 359.999C258.709 358.48 257.769 357.49 261.898 358.089C266.027 358.679 275.045 361.451 275.045 361.451L282.107 363.03L275.045 359.86C275.045 359.86 261.148 358.089 263.778 353.539H271.666C274.295 353.539 282.705 354.58 284.993 355.321C287.29 356.06 302.477 365.999 302.477 365.999" fill="white"/>
<path d="M301.946 388.07C295.576 389.82 281.242 386.179 281.242 386.179C281.242 386.179 271.855 381.48 271.285 380.37C270.934 379.66 270.507 378.46 270.232 377.67L281.756 379.03C281.756 379.03 280.371 381.4 281.756 384.009C283.037 386.429 297.636 388.889 301.946 388.07Z" fill="white"/>
<path d="M304.708 386.179C304.376 386.909 303.702 387.43 302.782 387.8C302.572 387.89 302.355 387.959 302.126 388.03C302.078 388.039 302.012 388.05 301.946 388.071C295.576 389.821 281.243 386.179 281.243 386.179C281.243 386.179 271.856 381.48 271.286 380.369C270.935 379.659 270.508 378.46 270.233 377.67C270.081 377.201 269.976 376.879 269.976 376.879C269.976 376.879 266.598 374.901 266.217 373.321C265.848 371.741 265.087 371.339 267.157 371.039C269.226 370.749 280.484 371.039 280.484 371.039L268.286 365.8C268.286 365.8 260.208 361.509 259.459 359.999C258.709 358.48 257.769 357.49 261.898 358.089C266.027 358.679 275.045 361.451 275.045 361.451L282.107 363.03L275.045 359.86C275.045 359.86 261.148 358.089 263.778 353.539H271.666C274.295 353.539 282.705 354.58 284.993 355.321C287.29 356.06 302.477 365.999 302.477 365.999" stroke="#293352" stroke-linecap="round" stroke-linejoin="round"/>
<path d="M269.975 376.879L283.847 379.027" stroke="#293352" stroke-linecap="round" stroke-linejoin="round"/>
<path d="M131.737 421.617L166.493 432.652L230.101 417.363C230.101 417.363 191.25 405.714 190.886 405.993C190.521 406.272 131.737 421.617 131.737 421.617Z" fill="#BE5C5A"/>
<path d="M131.736 421.617L166.492 432.652L230.101 417.363C230.101 417.363 191.249 405.714 190.885 405.993C190.52 406.272 131.736 421.617 131.736 421.617Z" fill="#293352"/>
<path d="M131.737 421.617L166.493 432.652L230.101 417.363C230.101 417.363 191.25 405.714 190.886 405.993C190.521 406.272 131.737 421.617 131.737 421.617Z" stroke="#293352" stroke-linecap="round" stroke-linejoin="round"/>
<path d="M132.236 408.721C129.8 408.9 129.189 418.164 131.736 421.617L187.883 409.343L192.388 398.119L132.236 408.721Z" fill="#BE5C5A"/>
<path d="M132.236 408.721C129.8 408.9 129.189 418.164 131.736 421.617L187.883 409.343L192.388 398.119L132.236 408.721Z" fill="#293352"/>
<path d="M132.236 408.721C129.8 408.9 129.189 418.164 131.736 421.617L187.883 409.343L192.388 398.119L132.236 408.721Z" stroke="#293352" stroke-linecap="round" stroke-linejoin="round"/>
<path d="M227.367 408.587C227.367 408.587 226.532 413.464 227.073 416.457L166.425 430.921L134.457 421.023C134.457 421.023 131.132 414.829 134.028 410.036L192.446 399.591L227.367 408.587Z" fill="white"/>
<path d="M227.367 408.587C227.367 408.587 226.532 413.464 227.073 416.457L166.425 430.921L134.457 421.023C134.457 421.023 131.132 414.829 134.028 410.036L192.446 399.591L227.367 408.587Z" stroke="#293352" stroke-linecap="round" stroke-linejoin="round"/>
<path d="M132.236 408.721L192.388 398.119L229.739 408.09L166.915 421.279L132.236 408.721Z" fill="#BE5C5A"/>
<path d="M132.236 408.721L192.388 398.119L229.739 408.09L166.915 421.279L132.236 408.721Z" stroke="#293352" stroke-linecap="round" stroke-linejoin="round"/>
<path d="M134.369 414.641L166.178 424.616L218.239 413.578" stroke="#293352" stroke-linecap="round" stroke-linejoin="round"/>
<path d="M226.899 414.598L170.914 427.182" stroke="#293352" stroke-linecap="round" stroke-linejoin="round"/>
<path d="M135.126 418.566C135.602 418.617 159.101 426.242 159.101 426.242" stroke="#293352" stroke-linecap="round" stroke-linejoin="round"/>
<path d="M222.324 412.288L226.78 411.528" stroke="#293352" stroke-linecap="round" stroke-linejoin="round"/>
<path d="M165.139 428.091L162.785 427.533" stroke="#293352" stroke-linecap="round" stroke-linejoin="round"/>
<path d="M134.028 410.036C134.028 410.036 138.336 414.835 134.456 421.022C134.456 421.022 130.864 415.979 134.028 410.036Z" fill="#293352"/>
<path d="M134.028 410.036C134.028 410.036 138.336 414.835 134.456 421.022C134.456 421.022 130.864 415.979 134.028 410.036Z" fill="white"/>
<path d="M134.028 410.036C134.028 410.036 138.336 414.835 134.456 421.022C134.456 421.022 130.864 415.979 134.028 410.036Z" stroke="#293352" stroke-linecap="round" stroke-linejoin="round"/>
<path d="M263.95 424.615L324.653 427.241L318.733 449.253L244.066 446.253L263.95 424.615Z" fill="white"/>
<path d="M263.95 424.615L324.654 427.241L318.733 449.253L244.066 446.253L263.95 424.615Z" fill="white"/>
<path d="M263.95 424.615L324.653 427.241L318.733 449.253L244.066 446.253L263.95 424.615Z" stroke="#293352" stroke-linecap="round" stroke-linejoin="round"/>
<path d="M317.953 265.147C318.088 266.449 317.484 267.585 316.605 267.686C315.726 267.788 314.904 266.814 314.769 265.513C314.635 264.211 315.238 263.075 316.116 262.974C316.996 262.873 317.817 263.845 317.953 265.147Z" fill="#293352"/>
<path d="M301.835 265.54C301.971 266.842 301.367 267.978 300.488 268.079C299.609 268.181 298.787 267.207 298.653 265.906C298.518 264.604 299.122 263.469 300 263.367C300.879 263.267 301.701 264.238 301.835 265.54Z" fill="#293352"/>
<path d="M308.849 258.954C308.849 258.954 317.08 255.324 320.779 259.728" stroke="#293352" stroke-linecap="round" stroke-linejoin="round"/>
<path d="M299.249 258.857C299.249 258.857 295.295 256.988 294.438 259.219" stroke="#293352" stroke-linecap="round" stroke-linejoin="round"/>
</svg>
