<svg width="24" height="42" viewBox="0 0 24 42" fill="none" xmlns="http://www.w3.org/2000/svg">
<path d="M22.9875 1.03429C22.6693 0.706562 22.2907 0.446434 21.8736 0.268915C21.4565 0.0913964 21.0091 0 20.5573 0C20.1054 0 19.658 0.0913964 19.2409 0.268915C18.8238 0.446434 18.4452 0.706562 18.127 1.03429L1.01249 18.5174C0.691665 18.8425 0.437021 19.2292 0.263245 19.6553C0.0894686 20.0814 0 20.5384 0 21C0 21.4616 0.0894686 21.9186 0.263245 22.3447C0.437021 22.7708 0.691665 23.1575 1.01249 23.4826L18.127 40.9657C18.4452 41.2934 18.8238 41.5536 19.2409 41.7311C19.658 41.9086 20.1054 42 20.5573 42C21.0091 42 21.4565 41.9086 21.8736 41.7311C22.2907 41.5536 22.6693 41.2934 22.9875 40.9657C23.3083 40.6406 23.563 40.2539 23.7368 39.8278C23.9105 39.4017 24 38.9447 24 38.4831C24 38.0215 23.9105 37.5645 23.7368 37.1384C23.563 36.7123 23.3083 36.3256 22.9875 36.0005L8.26904 21L22.9875 5.9995C23.3083 5.67444 23.563 5.28771 23.7368 4.86162C23.9105 4.43552 24 3.97849 24 3.5169C24 3.0553 23.9105 2.59827 23.7368 2.17218C23.563 1.74608 23.3083 1.35935 22.9875 1.03429Z" fill="#38376C"/>
</svg>
